<svg width="80" height="80" viewBox="0 0 80 80" fill="none" xmlns="http://www.w3.org/2000/svg">
<circle cx="40" cy="40" r="40" fill="#C5F9FF"/>
<circle cx="39.5" cy="39.5" r="32.5" fill="#0CC0D5"/>
<path d="M37.9167 43.3333C38.9113 43.3333 39.8651 43.7283 40.5684 44.4316C41.2716 45.1349 41.6667 46.0887 41.6667 47.0833V49.5866L41.6534 49.7666C41.1367 53.3116 37.9534 55.0149 32.6117 55.0149C27.29 55.0149 24.055 53.3316 23.3567 49.8283L23.3334 49.5833V47.0833C23.3334 46.0887 23.7285 45.1349 24.4317 44.4316C25.135 43.7283 26.0888 43.3333 27.0834 43.3333H37.9167ZM37.9167 45.8333H27.0834C26.7519 45.8333 26.4339 45.9649 26.1995 46.1994C25.9651 46.4338 25.8334 46.7517 25.8334 47.0833V49.4499C26.3 51.4499 28.4167 52.5149 32.6117 52.5149C36.805 52.5149 38.8284 51.4633 39.1667 49.4883V47.0833C39.1667 46.7517 39.035 46.4338 38.8006 46.1994C38.5662 45.9649 38.2482 45.8333 37.9167 45.8333ZM32.5 29.9999C33.2661 29.9999 34.0246 30.1508 34.7324 30.444C35.4401 30.7371 36.0832 31.1668 36.6248 31.7085C37.1665 32.2501 37.5962 32.8932 37.8893 33.6009C38.1825 34.3087 38.3334 35.0672 38.3334 35.8333C38.3334 36.5993 38.1825 37.3578 37.8893 38.0656C37.5962 38.7733 37.1665 39.4164 36.6248 39.958C36.0832 40.4997 35.4401 40.9294 34.7324 41.2225C34.0246 41.5157 33.2661 41.6666 32.5 41.6666C30.9529 41.6666 29.4692 41.052 28.3753 39.958C27.2813 38.8641 26.6667 37.3803 26.6667 35.8333C26.6667 34.2862 27.2813 32.8024 28.3753 31.7085C29.4692 30.6145 30.9529 29.9999 32.5 29.9999ZM52.9167 23.3333C53.9113 23.3333 54.8651 23.7283 55.5684 24.4316C56.2716 25.1349 56.6667 26.0887 56.6667 27.0833V32.9166C56.6667 33.409 56.5697 33.8967 56.3813 34.3516C56.1928 34.8066 55.9166 35.22 55.5684 35.5682C55.2201 35.9165 54.8067 36.1927 54.3518 36.3811C53.8968 36.5696 53.4092 36.6666 52.9167 36.6666H50.4917L46.8817 40.2349C46.5895 40.5239 46.2184 40.72 45.815 40.7986C45.4116 40.8772 44.994 40.8347 44.6147 40.6765C44.2354 40.5183 43.9114 40.2514 43.6834 39.9095C43.4554 39.5676 43.3336 39.1659 43.3334 38.7549V36.6433C42.4167 36.5408 41.5699 36.104 40.955 35.4165C40.3401 34.729 40.0001 33.839 40 32.9166V27.0833C40 26.0887 40.3951 25.1349 41.0984 24.4316C41.8017 23.7283 42.7555 23.3333 43.75 23.3333H52.9167ZM32.5 32.4999C31.616 32.4999 30.7681 32.8511 30.143 33.4762C29.5179 34.1014 29.1667 34.9492 29.1667 35.8333C29.1667 36.7173 29.5179 37.5652 30.143 38.1903C30.7681 38.8154 31.616 39.1666 32.5 39.1666C33.3841 39.1666 34.2319 38.8154 34.8571 38.1903C35.4822 37.5652 35.8334 36.7173 35.8334 35.8333C35.8334 34.9492 35.4822 34.1014 34.8571 33.4762C34.2319 32.8511 33.3841 32.4999 32.5 32.4999ZM52.9167 25.8333H43.75C43.4185 25.8333 43.1006 25.9649 42.8662 26.1994C42.6317 26.4338 42.5 26.7517 42.5 27.0833V32.9166C42.5 33.6066 43.06 34.1666 43.75 34.1666H45.8317V37.7566L49.4667 34.1666H52.9184C53.2499 34.1666 53.5678 34.0349 53.8023 33.8005C54.0367 33.566 54.1684 33.2481 54.1684 32.9166V27.0833C54.1684 26.7517 54.0367 26.4338 53.8023 26.1994C53.5678 25.9649 53.2499 25.8333 52.9184 25.8333H52.9167Z" fill="white"/>
</svg>
