<svg width="40" height="40" viewBox="0 0 40 40" fill="none" xmlns="http://www.w3.org/2000/svg">
<path d="M17.9167 23.3333C18.9113 23.3333 19.8651 23.7283 20.5684 24.4316C21.2716 25.1349 21.6667 26.0887 21.6667 27.0833V29.5866L21.6534 29.7666C21.1367 33.3116 17.9534 35.0149 12.6117 35.0149C7.29004 35.0149 4.05504 33.3316 3.35671 29.8283L3.33337 29.5833V27.0833C3.33337 26.0887 3.72846 25.1349 4.43172 24.4316C5.13498 23.7283 6.08881 23.3333 7.08337 23.3333H17.9167ZM17.9167 25.8333H7.08337C6.75185 25.8333 6.43391 25.9649 6.19949 26.1994C5.96507 26.4338 5.83337 26.7517 5.83337 27.0833V29.4499C6.30004 31.4499 8.41671 32.5149 12.6117 32.5149C16.805 32.5149 18.8284 31.4633 19.1667 29.4883V27.0833C19.1667 26.7517 19.035 26.4338 18.8006 26.1994C18.5662 25.9649 18.2482 25.8333 17.9167 25.8333ZM12.5 9.99992C13.2661 9.99992 14.0246 10.1508 14.7324 10.444C15.4401 10.7371 16.0832 11.1668 16.6248 11.7085C17.1665 12.2501 17.5962 12.8932 17.8893 13.6009C18.1825 14.3087 18.3334 15.0672 18.3334 15.8333C18.3334 16.5993 18.1825 17.3578 17.8893 18.0656C17.5962 18.7733 17.1665 19.4164 16.6248 19.958C16.0832 20.4997 15.4401 20.9294 14.7324 21.2225C14.0246 21.5157 13.2661 21.6666 12.5 21.6666C10.9529 21.6666 9.46921 21.052 8.37525 19.958C7.28129 18.8641 6.66671 17.3803 6.66671 15.8333C6.66671 14.2862 7.28129 12.8024 8.37525 11.7085C9.46921 10.6145 10.9529 9.99992 12.5 9.99992ZM32.9167 3.33325C33.9113 3.33325 34.8651 3.72834 35.5684 4.4316C36.2716 5.13486 36.6667 6.08869 36.6667 7.08325V12.9166C36.6667 13.409 36.5697 13.8967 36.3813 14.3516C36.1928 14.8066 35.9166 15.22 35.5684 15.5682C35.2201 15.9165 34.8067 16.1927 34.3518 16.3811C33.8968 16.5696 33.4092 16.6666 32.9167 16.6666H30.4917L26.8817 20.2349C26.5895 20.5239 26.2184 20.72 25.815 20.7986C25.4116 20.8772 24.994 20.8347 24.6147 20.6765C24.2354 20.5183 23.9114 20.2514 23.6834 19.9095C23.4554 19.5676 23.3336 19.1659 23.3334 18.7549V16.6433C22.4167 16.5408 21.5699 16.104 20.955 15.4165C20.3401 14.729 20.0001 13.839 20 12.9166V7.08325C20 6.08869 20.3951 5.13486 21.0984 4.4316C21.8017 3.72834 22.7555 3.33325 23.75 3.33325H32.9167ZM12.5 12.4999C11.616 12.4999 10.7681 12.8511 10.143 13.4762C9.5179 14.1014 9.16671 14.9492 9.16671 15.8333C9.16671 16.7173 9.5179 17.5652 10.143 18.1903C10.7681 18.8154 11.616 19.1666 12.5 19.1666C13.3841 19.1666 14.2319 18.8154 14.8571 18.1903C15.4822 17.5652 15.8334 16.7173 15.8334 15.8333C15.8334 14.9492 15.4822 14.1014 14.8571 13.4762C14.2319 12.8511 13.3841 12.4999 12.5 12.4999ZM32.9167 5.83325H23.75C23.4185 5.83325 23.1006 5.96495 22.8662 6.19937C22.6317 6.43379 22.5 6.75173 22.5 7.08325V12.9166C22.5 13.6066 23.06 14.1666 23.75 14.1666H25.8317V17.7566L29.4667 14.1666H32.9184C33.2499 14.1666 33.5678 14.0349 33.8023 13.8005C34.0367 13.566 34.1684 13.2481 34.1684 12.9166V7.08325C34.1684 6.75173 34.0367 6.43379 33.8023 6.19937C33.5678 5.96495 33.2499 5.83325 32.9184 5.83325H32.9167Z" fill="white"/>
</svg>
